<?xml version="1.0" encoding="UTF-8"?>
<svg id="Capa_1" xmlns="http://www.w3.org/2000/svg" version="1.1" viewBox="0 0 40 40">
  <!-- Generator: Adobe Illustrator 29.3.1, SVG Export Plug-In . SVG Version: 2.1.0 Build 151)  -->
  <defs>
    <style>
      .st0 {
        fill: #dee2e6;
      }
    </style>
  </defs>
  <path class="st0" d="M32.95,20.05c0-7.15-5.8-12.95-12.95-12.95s-12.95,5.8-12.95,12.95c0,6.07,4.18,11.17,9.82,12.57v-8.61h-2.67v-3.96h2.67v-1.7c0-4.41,1.99-6.45,6.32-6.45.82,0,2.24.16,2.82.32v3.58c-.3-.03-.83-.05-1.5-.05-2.12,0-2.94.8-2.94,2.89v1.41h4.23l-.73,3.96h-3.51v8.9c6.41-.77,11.38-6.23,11.38-12.85h0Z"/>
</svg>