<?xml version="1.0" encoding="UTF-8"?>
<svg id="Capa_1" xmlns="http://www.w3.org/2000/svg" version="1.1" viewBox="0 0 40 40">
  <!-- Generator: Adobe Illustrator 29.3.1, SVG Export Plug-In . SVG Version: 2.1.0 Build 151)  -->
  <defs>
    <style>
      .st0 {
        fill: #dee2e6;
      }
    </style>
  </defs>
  <path class="st0" d="M20,13.71c-3.48,0-6.29,2.81-6.29,6.29s2.81,6.29,6.29,6.29,6.29-2.81,6.29-6.29-2.81-6.29-6.29-6.29ZM20,24.09c-2.25,0-4.09-1.83-4.09-4.09s1.83-4.09,4.09-4.09,4.09,1.83,4.09,4.09-1.84,4.09-4.09,4.09h0ZM28.02,13.45c0,.82-.66,1.47-1.47,1.47s-1.47-.66-1.47-1.47.66-1.47,1.47-1.47,1.47.66,1.47,1.47ZM32.18,14.94c-.09-1.96-.54-3.71-1.98-5.14-1.43-1.43-3.17-1.88-5.14-1.98-2.03-.11-8.09-.11-10.12,0-1.96.09-3.7.54-5.14,1.98-1.44,1.43-1.88,3.17-1.98,5.14-.11,2.03-.11,8.09,0,10.12.09,1.96.54,3.71,1.98,5.14,1.44,1.43,3.17,1.88,5.14,1.98,2.03.11,8.09.11,10.12,0,1.96-.09,3.71-.54,5.14-1.98,1.43-1.43,1.88-3.17,1.98-5.14.11-2.03.11-8.09,0-10.11h0ZM29.56,27.23c-.43,1.07-1.25,1.9-2.33,2.33-1.61.64-5.45.49-7.23.49s-5.62.14-7.23-.49c-1.07-.43-1.9-1.25-2.33-2.33-.64-1.61-.49-5.45-.49-7.23s-.14-5.62.49-7.23c.43-1.07,1.25-1.9,2.33-2.33,1.61-.64,5.45-.49,7.23-.49s5.62-.14,7.23.49c1.07.43,1.9,1.25,2.33,2.33.64,1.61.49,5.45.49,7.23s.15,5.62-.49,7.23Z"/>
</svg>