<?xml version="1.0" encoding="UTF-8"?>
<svg id="Capa_1" xmlns="http://www.w3.org/2000/svg" version="1.1" viewBox="0 0 271.79 78.21">
  <!-- Generator: Adobe Illustrator 29.3.1, SVG Export Plug-In . SVG Version: 2.1.0 Build 151)  -->
  <defs>
    <style>
      .st0 {
        font-family: MalgunGothicBold, 'Malgun Gothic';
        font-size: 37.25px;
      }

      .st0, .st1 {
        fill: #f2f2f2;
      }

      .st2 {
        fill: #e6e6e6;
        font-family: MalgunGothic-Semilight, 'Malgun Gothic';
        font-size: 16.84px;
        font-weight: 300;
      }

      .st3 {
        fill: #333;
      }
    </style>
  </defs>
  <text class="st0" transform="translate(55.02 46.13)"><tspan x="0" y="0">TechDesign</tspan></text>
  <text class="st2" transform="translate(144.78 61.11)"><tspan x="0" y="0">Solutions</tspan></text>
  <g>
    <path class="st1" d="M56.81,34.41v.96c-.55,5.26-7.2,7.5-10.68,3.36-.81-.96-.91-1.86-2.26-2.38-1.04-.4-4.43-.4-5.48,0-1.35.52-1.45,1.42-2.26,2.38-3.93,4.67-11.54,1.14-10.5-4.9.86-4.97,7.24-6.65,10.5-2.78.81.96.91,1.86,2.26,2.38,1.05.4,4.44.4,5.48,0,1.35-.52,1.45-1.42,2.26-2.38,3.43-4.08,10.2-1.92,10.68,3.36ZM32.73,33.69h-2.4v2.4h2.4v-2.4Z"/>
    <path class="st1" d="M21.52,16.92c1.9-.14,3.8.69,5.02,2.14.81.96.91,1.86,2.26,2.38,1.1.43,4.57.41,5.65-.07,1.2-.53,1.32-1.37,2.05-2.27,3.88-4.7,11.53-1.24,10.55,4.79-.82,5.01-7.23,6.75-10.51,2.85-.81-.96-.91-1.86-2.26-2.38-1.1-.43-4.57-.41-5.65.07-1.2.53-1.32,1.37-2.05,2.27-2.58,3.12-7.49,2.84-9.71-.52-2.56-3.87.11-8.93,4.66-9.25ZM42.33,21.69h-2.4v2.4h2.4v-2.4Z"/>
    <path class="st1" d="M21.52,40.92c1.9-.14,3.8.69,5.02,2.14.81.96.91,1.86,2.26,2.38,1.1.43,4.57.41,5.65-.07,1.2-.53,1.32-1.37,2.05-2.27,3.88-4.7,11.53-1.24,10.55,4.79-.82,5.01-7.23,6.75-10.51,2.85-.81-.96-.91-1.86-2.26-2.38-1.1-.43-4.57-.41-5.65.07-1.2.53-1.32,1.37-2.05,2.27-2.58,3.12-7.49,2.84-9.71-.52-2.56-3.87.11-8.93,4.66-9.25ZM42.33,45.69h-2.4v2.4h2.4v-2.4Z"/>
    <rect class="st3" x="30.33" y="33.69" width="2.4" height="2.4"/>
    <rect class="st3" x="39.93" y="21.69" width="2.4" height="2.4"/>
    <rect class="st3" x="39.93" y="45.69" width="2.4" height="2.4"/>
  </g>
</svg>