<?xml version="1.0" encoding="UTF-8"?>
<svg id="Capa_1" xmlns="http://www.w3.org/2000/svg" version="1.1" viewBox="0 0 40 40">
  <!-- Generator: Adobe Illustrator 29.3.1, SVG Export Plug-In . SVG Version: 2.1.0 Build 151)  -->
  <defs>
    <style>
      .st0 {
        fill: #dee2e6;
      }
    </style>
  </defs>
  <path class="st0" d="M28.59,11.3c-2.29-2.3-5.35-3.56-8.59-3.56-6.7,0-12.15,5.45-12.15,12.15,0,2.14.56,4.23,1.62,6.08l-1.72,6.29,6.44-1.69c1.77.97,3.77,1.48,5.81,1.48h0c6.69,0,12.26-5.45,12.26-12.15,0-3.25-1.38-6.29-3.67-8.59ZM19.99,30c-1.82,0-3.6-.49-5.14-1.41l-.37-.22-3.82,1,1.02-3.73-.24-.38c-1.01-1.61-1.54-3.46-1.54-5.37,0-5.57,4.53-10.1,10.1-10.1,2.7,0,5.23,1.05,7.14,2.96,1.9,1.91,3.08,4.44,3.07,7.14,0,5.57-4.65,10.1-10.21,10.1h0ZM25.53,22.44c-.3-.15-1.8-.89-2.07-.99-.28-.1-.48-.15-.68.15-.2.31-.78.99-.96,1.19-.18.2-.36.23-.66.08-1.78-.89-2.96-1.59-4.13-3.61-.31-.54.31-.5.89-1.66.1-.2.05-.38-.03-.53s-.68-1.65-.94-2.25c-.25-.59-.5-.51-.68-.52-.18-.01-.38-.01-.58-.01s-.53.08-.81.38c-.28.31-1.06,1.04-1.06,2.53s1.09,2.94,1.24,3.14c.15.2,2.14,3.27,5.19,4.59,1.93.83,2.68.9,3.65.76.59-.09,1.8-.73,2.05-1.44s.25-1.32.18-1.44c-.07-.14-.27-.21-.57-.36Z"/>
</svg>